<mxfile modified="2023-03-15T22:11:18.330Z" host="Electron" agent="5.0 (Windows NT 10.0; Win64; x64) AppleWebKit/537.36 (KHTML, like Gecko) draw.io/20.3.0 Chrome/104.0.5112.114 Electron/20.1.3 Safari/537.36" etag="KfmgDbiJ0bq9VR6h0cBZ" compressed="false" version="20.3.0" type="device">
  <diagram id="HYzF73KgEnye3sPiTIXc" name="Dashboard">
    <mxGraphModel dx="782" dy="517" grid="1" gridSize="10" guides="1" tooltips="1" connect="1" arrows="1" fold="1" page="1" pageScale="1" pageWidth="827" pageHeight="1169" math="0" shadow="0">
      <root>
        <mxCell id="U306Htc3g1HH8Dd8mSrG-0" />
        <mxCell id="U306Htc3g1HH8Dd8mSrG-1" parent="U306Htc3g1HH8Dd8mSrG-0" />
        <mxCell id="tnz5LCsHIrxU88MOOZeP-22" style="edgeStyle=none;rounded=0;orthogonalLoop=1;jettySize=auto;html=1;entryX=0;entryY=0;entryDx=0;entryDy=0;entryPerimeter=0;endArrow=open;endFill=0;" parent="U306Htc3g1HH8Dd8mSrG-1" source="tnz5LCsHIrxU88MOOZeP-0" target="tnz5LCsHIrxU88MOOZeP-4" edge="1">
          <mxGeometry relative="1" as="geometry" />
        </mxCell>
        <mxCell id="tnz5LCsHIrxU88MOOZeP-23" style="edgeStyle=none;rounded=0;orthogonalLoop=1;jettySize=auto;html=1;entryX=0;entryY=0;entryDx=0;entryDy=0;endArrow=open;endFill=0;" parent="U306Htc3g1HH8Dd8mSrG-1" source="tnz5LCsHIrxU88MOOZeP-0" target="tnz5LCsHIrxU88MOOZeP-15" edge="1">
          <mxGeometry relative="1" as="geometry" />
        </mxCell>
        <mxCell id="tnz5LCsHIrxU88MOOZeP-24" style="edgeStyle=none;rounded=0;orthogonalLoop=1;jettySize=auto;html=1;entryX=0;entryY=0.75;entryDx=0;entryDy=0;endArrow=open;endFill=0;" parent="U306Htc3g1HH8Dd8mSrG-1" source="tnz5LCsHIrxU88MOOZeP-0" target="tnz5LCsHIrxU88MOOZeP-7" edge="1">
          <mxGeometry relative="1" as="geometry" />
        </mxCell>
        <mxCell id="tnz5LCsHIrxU88MOOZeP-25" style="edgeStyle=none;rounded=0;orthogonalLoop=1;jettySize=auto;html=1;entryX=0;entryY=1;entryDx=0;entryDy=0;endArrow=open;endFill=0;" parent="U306Htc3g1HH8Dd8mSrG-1" source="tnz5LCsHIrxU88MOOZeP-0" target="tnz5LCsHIrxU88MOOZeP-18" edge="1">
          <mxGeometry relative="1" as="geometry" />
        </mxCell>
        <mxCell id="tnz5LCsHIrxU88MOOZeP-0" value="&lt;p style=&quot;line-height: 100%&quot;&gt;&amp;lt;&amp;lt;actor&amp;gt;&amp;gt;&lt;br&gt;&lt;b&gt;Tenant &lt;br&gt;Authenticated&lt;br&gt;User&lt;/b&gt;&lt;br&gt;&lt;/p&gt;" style="text;html=1;align=center;verticalAlign=middle;dashed=0;strokeColor=#000000;strokeWidth=2;" parent="U306Htc3g1HH8Dd8mSrG-1" vertex="1">
          <mxGeometry x="120" y="230" width="80" height="60" as="geometry" />
        </mxCell>
        <mxCell id="tnz5LCsHIrxU88MOOZeP-1" value="" style="fontStyle=1;align=center;verticalAlign=top;childLayout=stackLayout;horizontal=1;horizontalStack=0;resizeParent=1;resizeParentMax=0;resizeLast=0;marginBottom=0;strokeColor=#82b366;strokeWidth=2;fillColor=none;" parent="U306Htc3g1HH8Dd8mSrG-1" vertex="1">
          <mxGeometry x="240" y="120" width="120" height="63" as="geometry" />
        </mxCell>
        <mxCell id="tnz5LCsHIrxU88MOOZeP-2" value="Retrieve/View&lt;br&gt;Dashboard&lt;br&gt;Items" style="html=1;align=left;spacingLeft=4;verticalAlign=middle;strokeColor=none;fillColor=none;fontStyle=1" parent="tnz5LCsHIrxU88MOOZeP-1" vertex="1">
          <mxGeometry width="120" height="30" as="geometry" />
        </mxCell>
        <mxCell id="tnz5LCsHIrxU88MOOZeP-3" value="" style="shape=ellipse;" parent="tnz5LCsHIrxU88MOOZeP-2" vertex="1">
          <mxGeometry x="1" width="10" height="16" relative="1" as="geometry">
            <mxPoint x="-25" y="7" as="offset" />
          </mxGeometry>
        </mxCell>
        <mxCell id="tnz5LCsHIrxU88MOOZeP-4" value="" style="line;strokeWidth=1;fillColor=none;align=left;verticalAlign=middle;spacingTop=-1;spacingLeft=3;spacingRight=3;rotatable=0;labelPosition=right;points=[];portConstraint=eastwest;" parent="tnz5LCsHIrxU88MOOZeP-1" vertex="1">
          <mxGeometry y="30" width="120" height="8" as="geometry" />
        </mxCell>
        <mxCell id="tnz5LCsHIrxU88MOOZeP-5" value="." style="html=1;align=center;spacingLeft=4;verticalAlign=top;strokeColor=none;fillColor=none;" parent="tnz5LCsHIrxU88MOOZeP-1" vertex="1">
          <mxGeometry y="38" width="120" height="25" as="geometry" />
        </mxCell>
        <mxCell id="tnz5LCsHIrxU88MOOZeP-6" value="" style="fontStyle=1;align=center;verticalAlign=top;childLayout=stackLayout;horizontal=1;horizontalStack=0;resizeParent=1;resizeParentMax=0;resizeLast=0;marginBottom=0;strokeColor=#82b366;strokeWidth=2;fillColor=none;" parent="U306Htc3g1HH8Dd8mSrG-1" vertex="1">
          <mxGeometry x="240" y="260" width="120" height="63" as="geometry" />
        </mxCell>
        <mxCell id="tnz5LCsHIrxU88MOOZeP-7" value="Add&amp;nbsp;&lt;br&gt;Available &lt;br&gt;Dashboard Items" style="html=1;align=left;spacingLeft=4;verticalAlign=middle;strokeColor=none;fillColor=none;fontStyle=1" parent="tnz5LCsHIrxU88MOOZeP-6" vertex="1">
          <mxGeometry width="120" height="30" as="geometry" />
        </mxCell>
        <mxCell id="tnz5LCsHIrxU88MOOZeP-8" value="" style="shape=ellipse;" parent="tnz5LCsHIrxU88MOOZeP-7" vertex="1">
          <mxGeometry x="1" width="10" height="16" relative="1" as="geometry">
            <mxPoint x="-25" y="7" as="offset" />
          </mxGeometry>
        </mxCell>
        <mxCell id="tnz5LCsHIrxU88MOOZeP-9" value="" style="line;strokeWidth=1;fillColor=none;align=left;verticalAlign=middle;spacingTop=-1;spacingLeft=3;spacingRight=3;rotatable=0;labelPosition=right;points=[];portConstraint=eastwest;" parent="tnz5LCsHIrxU88MOOZeP-6" vertex="1">
          <mxGeometry y="30" width="120" height="8" as="geometry" />
        </mxCell>
        <mxCell id="tnz5LCsHIrxU88MOOZeP-10" value="." style="html=1;align=center;spacingLeft=4;verticalAlign=top;strokeColor=none;fillColor=none;" parent="tnz5LCsHIrxU88MOOZeP-6" vertex="1">
          <mxGeometry y="38" width="120" height="25" as="geometry" />
        </mxCell>
        <mxCell id="tnz5LCsHIrxU88MOOZeP-11" value="" style="fontStyle=1;align=center;verticalAlign=top;childLayout=stackLayout;horizontal=1;horizontalStack=0;resizeParent=1;resizeParentMax=0;resizeLast=0;marginBottom=0;strokeColor=#82b366;strokeWidth=2;fillColor=none;" parent="U306Htc3g1HH8Dd8mSrG-1" vertex="1">
          <mxGeometry x="240" y="190" width="120" height="63" as="geometry" />
        </mxCell>
        <mxCell id="tnz5LCsHIrxU88MOOZeP-12" value="Change Dashboard &lt;br&gt;widget Order" style="html=1;align=left;spacingLeft=4;verticalAlign=middle;strokeColor=none;fillColor=none;fontStyle=1" parent="tnz5LCsHIrxU88MOOZeP-11" vertex="1">
          <mxGeometry width="120" height="30" as="geometry" />
        </mxCell>
        <mxCell id="tnz5LCsHIrxU88MOOZeP-13" value="" style="shape=ellipse;" parent="tnz5LCsHIrxU88MOOZeP-12" vertex="1">
          <mxGeometry x="1" width="10" height="16" relative="1" as="geometry">
            <mxPoint x="-25" y="7" as="offset" />
          </mxGeometry>
        </mxCell>
        <mxCell id="tnz5LCsHIrxU88MOOZeP-14" value="" style="line;strokeWidth=1;fillColor=none;align=left;verticalAlign=middle;spacingTop=-1;spacingLeft=3;spacingRight=3;rotatable=0;labelPosition=right;points=[];portConstraint=eastwest;" parent="tnz5LCsHIrxU88MOOZeP-11" vertex="1">
          <mxGeometry y="30" width="120" height="8" as="geometry" />
        </mxCell>
        <mxCell id="tnz5LCsHIrxU88MOOZeP-15" value="." style="html=1;align=center;spacingLeft=4;verticalAlign=top;strokeColor=none;fillColor=none;" parent="tnz5LCsHIrxU88MOOZeP-11" vertex="1">
          <mxGeometry y="38" width="120" height="25" as="geometry" />
        </mxCell>
        <mxCell id="tnz5LCsHIrxU88MOOZeP-17" value="" style="fontStyle=1;align=center;verticalAlign=top;childLayout=stackLayout;horizontal=1;horizontalStack=0;resizeParent=1;resizeParentMax=0;resizeLast=0;marginBottom=0;strokeColor=#82b366;strokeWidth=2;fillColor=none;" parent="U306Htc3g1HH8Dd8mSrG-1" vertex="1">
          <mxGeometry x="239" y="330" width="120" height="63" as="geometry" />
        </mxCell>
        <mxCell id="tnz5LCsHIrxU88MOOZeP-18" value="Edit/Customize&lt;br&gt;Dashboard Items" style="html=1;align=left;spacingLeft=4;verticalAlign=middle;strokeColor=none;fillColor=none;fontStyle=1" parent="tnz5LCsHIrxU88MOOZeP-17" vertex="1">
          <mxGeometry width="120" height="30" as="geometry" />
        </mxCell>
        <mxCell id="tnz5LCsHIrxU88MOOZeP-19" value="" style="shape=ellipse;" parent="tnz5LCsHIrxU88MOOZeP-18" vertex="1">
          <mxGeometry x="1" width="10" height="16" relative="1" as="geometry">
            <mxPoint x="-25" y="7" as="offset" />
          </mxGeometry>
        </mxCell>
        <mxCell id="tnz5LCsHIrxU88MOOZeP-20" value="" style="line;strokeWidth=1;fillColor=none;align=left;verticalAlign=middle;spacingTop=-1;spacingLeft=3;spacingRight=3;rotatable=0;labelPosition=right;points=[];portConstraint=eastwest;" parent="tnz5LCsHIrxU88MOOZeP-17" vertex="1">
          <mxGeometry y="30" width="120" height="8" as="geometry" />
        </mxCell>
        <mxCell id="tnz5LCsHIrxU88MOOZeP-21" value="." style="html=1;align=center;spacingLeft=4;verticalAlign=top;strokeColor=none;fillColor=none;" parent="tnz5LCsHIrxU88MOOZeP-17" vertex="1">
          <mxGeometry y="38" width="120" height="25" as="geometry" />
        </mxCell>
        <mxCell id="7-7WjwmuDe7s4TUal-Ih-0" value="Title" parent="U306Htc3g1HH8Dd8mSrG-0" visible="0" />
        <mxCell id="l57STPvQWjNYZPw2Y4dd-9" value="&lt;font style=&quot;font-size: 12px ; font-weight: normal&quot;&gt;&lt;i&gt;&lt;span&gt;Diagram: Base System Logical Module -&amp;nbsp;&lt;/span&gt;&lt;span&gt;Functionality -&amp;nbsp;&lt;/span&gt;Dashboard Items&lt;/i&gt;&lt;/font&gt;" style="text;strokeColor=none;fillColor=none;html=1;fontSize=10;fontStyle=1;verticalAlign=middle;align=left;shadow=0;glass=0;comic=0;opacity=30;fontColor=#808080;" parent="7-7WjwmuDe7s4TUal-Ih-0" vertex="1">
          <mxGeometry x="120" y="440" width="520" height="40" as="geometry" />
        </mxCell>
      </root>
    </mxGraphModel>
  </diagram>
</mxfile>
